HIERARCHY
ROOT Hips
{
	OFFSET 0.000000 95.729000 0.000000
	CHANNELS 6 Xposition Yposition Zposition Yrotation Xrotation Zrotation
	JOINT RightUpLeg
	{
		OFFSET -9.625000 -1.639000 0.000000
		CHANNELS 3 Yrotation Xrotation Zrotation
		JOINT RightLeg
		{
			OFFSET 0.000000 -41.481000 0.000000
			CHANNELS 3 Yrotation Xrotation Zrotation
			JOINT RightFoot
			{
				OFFSET 0.000000 -43.120000 0.000000
				CHANNELS 3 Yrotation Xrotation Zrotation
				End Site
				{
					OFFSET 0.000000 -7.850000 17.850000
				}
			}
		}
	}
	JOINT LeftUpLeg
	{
		OFFSET 9.625000 -1.639000 0.000000
		CHANNELS 3 Yrotation Xrotation Zrotation
		JOINT LeftLeg
		{
			OFFSET 0.000000 -43.120000 0.000000
			CHANNELS 3 Yrotation Xrotation Zrotation
			JOINT LeftFoot
			{
				OFFSET 0.000000 -43.120000 0.000000
				CHANNELS 3 Yrotation Xrotation Zrotation
				End Site
				{
					OFFSET 0.000000 -7.850000 17.850000
				}
			}
		}
	}
	JOINT Spine
	{
		OFFSET 0.000000 16.395000 0.000000
		CHANNELS 3 Yrotation Xrotation Zrotation
		JOINT Spine1
		{
			OFFSET 0.000000 10.023000 0.000000
			CHANNELS 3 Yrotation Xrotation Zrotation
			JOINT Spine2
			{
				OFFSET 0.000000 10.437000 0.000000
				CHANNELS 3 Yrotation Xrotation Zrotation
				JOINT Spine3
				{
					OFFSET 0.000000 10.023000 0.000000
					CHANNELS 3 Yrotation Xrotation Zrotation
					JOINT Neck
					{
						OFFSET 0.000000 10.713000 0.000000
						CHANNELS 3 Yrotation Xrotation Zrotation
						JOINT Head
						{
							OFFSET 0.000000 9.720000 0.000000
							CHANNELS 3 Yrotation Xrotation Zrotation
							End Site
							{
								OFFSET 0.000000 16.450000 0.000000
							}
						}
					}
					JOINT RightShoulder
					{
						OFFSET -3.275000 7.142000 0.000000
						CHANNELS 3 Yrotation Xrotation Zrotation
						JOINT RightArm
						{
							OFFSET -13.100000 0.000000 0.000000
							CHANNELS 3 Yrotation Xrotation Zrotation
							JOINT RightForeArm
							{
								OFFSET -27.250000 0.000000 0.000000
								CHANNELS 3 Yrotation Xrotation Zrotation
								JOINT RightHand
								{
									OFFSET -26.750000 0.000000 0.000000
									CHANNELS 3 Yrotation Xrotation Zrotation
									End Site
									{
										OFFSET -3.479000 0.532000 0.778000
									}
								}
							}
						}
					}
					JOINT LeftShoulder
					{
						OFFSET 3.275000 7.142000 0.000000
						CHANNELS 3 Yrotation Xrotation Zrotation
						JOINT LeftArm
						{
							OFFSET 13.100000 0.000000 0.000000
							CHANNELS 3 Yrotation Xrotation Zrotation
							JOINT LeftForeArm
							{
								OFFSET 27.250000 0.000000 0.000000
								CHANNELS 3 Yrotation Xrotation Zrotation
								JOINT LeftHand
								{
									OFFSET 26.750000 0.000000 0.000000
									CHANNELS 3 Yrotation Xrotation Zrotation
									End Site
									{
										OFFSET 3.479000 0.532000 0.778000
									}
								}
							}
						}
					}
				}
			}
		}
	}
}
MOTION
Frames: 15
Frame Time: 0.010000
47.67 94.53 4.04 -123.69 0.02 -0.46 5.71 -4.22 -3.35 0.0 22.25 0.0 -4.69 -17.61 3.66 0.14 -18.42 0.87 0.0 28.03 0.0 -5.48 -14.27 1.35 23.03 -0.74 -4.75 5.86 0.0 -1.12 9.25 0.35 -1.81 -1.81 0.12 0.46 -1.86 0.15 0.46 -34.56 10.28 5.99 9.95 -16.76 2.15 70.98 -49.8 20.86 -17.91 65.12 -44.68 -20.93 15.3 -53.11 -3.4 -4.89 -2.55 -27.41 1.34 -73.98 -7.98 30.25 -6.38 -7.45 -24.71 21.25
47.6 94.52 4.18 -123.38 0.12 -0.52 5.34 -4.24 -3.4 0.0 22.15 -0.0 -4.65 -17.53 3.74 -0.14 -18.61 0.84 -0.0 28.12 -0.0 -5.55 -14.23 1.37 22.78 -0.8 -4.68 5.79 -0.01 -1.1 9.15 0.32 -1.78 -1.8 0.13 0.45 -1.84 0.15 0.45 -34.29 10.29 5.87 9.13 -16.24 2.49 68.97 -50.29 21.49 -15.48 65.14 -43.64 -21.14 15.19 -53.7 -3.42 -4.76 -2.57 -27.22 1.32 -73.98 -8.02 30.49 -6.43 -7.46 -24.75 21.19
47.55 94.51 4.33 -123.39 0.07 -0.52 5.27 -4.2 -3.51 0.0 22.14 -0.0 -4.63 -17.49 3.84 -0.13 -18.58 0.74 0.0 28.12 0.0 -5.6 -14.19 1.37 22.58 -0.71 -4.45 5.74 -0.0 -1.05 9.08 0.31 -1.7 -1.78 0.14 0.43 -1.82 0.16 0.43 -33.88 10.16 5.57 8.42 -15.8 2.88 68.34 -50.26 21.64 -14.76 64.71 -43.52 -21.32 15.11 -54.25 -3.25 -4.71 -2.82 -27.11 1.34 -73.99 -7.98 30.73 -6.42 -7.48 -24.76 21.11
47.49 94.5 4.48 -123.42 0.01 -0.53 5.23 -4.14 -3.61 0.0 22.1 0.0 -4.54 -17.45 3.92 -0.17 -18.55 0.65 -0.0 28.13 -0.0 -5.61 -14.15 1.37 22.42 -0.66 -4.29 5.7 -0.0 -1.02 9.02 0.31 -1.64 -1.77 0.14 0.42 -1.81 0.17 0.42 -33.61 10.07 5.38 7.62 -15.15 3.33 67.58 -50.3 21.83 -13.7 64.33 -43.13 -21.51 15.05 -54.76 -3.24 -4.53 -2.92 -27.07 1.39 -73.98 -8.21 30.96 -6.55 -7.36 -24.92 21.15
47.43 94.49 4.62 -123.49 -0.04 -0.51 5.18 -4.12 -3.76 0.0 22.11 0.0 -4.39 -17.43 4.0 -0.22 -18.51 0.54 -0.0 28.13 0.0 -5.6 -14.11 1.37 22.3 -0.62 -4.14 5.67 0.0 -0.98 8.98 0.3 -1.59 -1.75 0.15 0.41 -1.79 0.18 0.41 -33.22 10.12 5.17 6.74 -14.63 3.76 66.45 -50.26 22.59 -12.51 64.05 -42.82 -21.77 14.91 -55.27 -3.26 -4.38 -3.05 -27.06 1.47 -73.98 -8.34 31.17 -6.55 -7.28 -25.03 21.15
47.38 94.49 4.75 -123.57 -0.07 -0.51 5.08 -4.12 -3.87 0.0 22.12 0.0 -4.38 -17.39 4.03 -0.3 -18.5 0.46 -0.0 28.14 -0.0 -5.59 -14.08 1.36 22.15 -0.57 -3.99 5.63 0.01 -0.95 8.92 0.29 -1.53 -1.74 0.16 0.4 -1.77 0.18 0.4 -32.92 10.11 5.05 6.68 -14.44 3.78 63.79 -50.19 24.17 -11.22 64.0 -42.68 -22.03 14.77 -55.76 -3.04 -4.37 -3.24 -27.24 1.65 -73.96 -8.18 31.26 -6.39 -7.34 -25.0 21.06
47.29 94.48 4.9 -123.72 -0.15 -0.52 5.02 -4.04 -4.0 0.0 22.07 -0.0 -4.22 -17.35 4.11 -0.33 -18.42 0.37 0.0 28.16 -0.0 -5.57 -14.07 1.34 22.16 -0.52 -3.92 5.63 0.01 -0.93 8.93 0.3 -1.51 -1.74 0.16 0.41 -1.77 0.18 0.4 -32.85 10.18 5.07 4.23 -13.15 4.87 62.34 -49.81 25.5 -7.53 64.17 -41.18 -22.59 14.58 -56.35 -3.55 -4.17 -3.17 -27.02 1.67 -73.89 -8.14 31.34 -6.31 -7.33 -25.08 21.04
47.22 94.48 5.02 -123.87 -0.2 -0.52 5.02 -4.0 -4.11 0.0 22.05 -0.0 -4.15 -17.32 4.17 -0.33 -18.36 0.29 -0.0 28.16 -0.0 -5.58 -14.07 1.34 21.74 -0.42 -3.59 5.52 0.02 -0.86 8.77 0.28 -1.39 -1.7 0.17 0.38 -1.74 0.19 0.38 -32.19 9.94 4.73 3.82 -12.42 5.07 61.38 -49.7 26.5 -9.15 63.68 -43.28 -21.65 14.11 -56.51 -3.13 -4.06 -3.55 -26.88 1.68 -73.81 -8.17 31.41 -6.26 -7.3 -25.17 21.03
47.15 94.47 5.14 -124.02 -0.26 -0.53 4.98 -3.94 -4.21 -0.0 22.01 -0.0 -4.03 -17.29 4.24 -0.33 -18.31 0.22 -0.0 28.2 -0.0 -5.57 -14.08 1.35 21.66 -0.39 -3.47 5.5 0.02 -0.83 8.74 0.28 -1.34 -1.7 0.17 0.38 -1.73 0.2 0.38 -32.0 9.94 4.63 2.93 -11.72 5.49 59.55 -49.42 28.15 -6.11 64.63 -42.33 -22.69 14.17 -56.08 -3.27 -3.89 -3.64 -26.81 1.69 -73.72 -8.08 31.41 -6.12 -7.35 -25.19 20.95
47.08 94.46 5.23 -124.18 -0.32 -0.53 4.96 -3.89 -4.32 -0.0 21.99 0.0 -3.89 -17.28 4.3 -0.32 -18.24 0.15 -0.0 28.22 -0.0 -5.53 -14.1 1.35 21.61 -0.35 -3.36 5.49 0.03 -0.81 8.72 0.27 -1.3 -1.69 0.18 0.37 -1.72 0.2 0.37 -31.84 9.93 4.56 1.91 -11.29 6.04 57.3 -48.8 30.35 -4.99 64.55 -41.83 -22.61 13.67 -57.0 -3.36 -3.85 -3.73 -26.63 1.67 -73.72 -9.72 32.75 -7.35 -6.26 -26.27 21.48
47.02 94.46 5.3 -124.3 -0.37 -0.53 4.99 -3.82 -4.38 -0.0 21.95 0.0 -3.86 -17.26 4.34 -0.4 -18.18 0.11 0.0 28.25 -0.0 -5.47 -14.13 1.32 21.32 -0.23 -3.15 5.41 0.04 -0.76 8.61 0.28 -1.23 -1.66 0.18 0.36 -1.69 0.2 0.36 -31.34 9.67 4.38 1.4 -10.71 6.29 55.32 -48.55 32.43 -3.15 65.01 -40.81 -23.03 13.35 -57.1 -3.15 -3.84 -3.92 -26.94 1.8 -73.59 -9.62 32.35 -7.19 -6.36 -26.24 21.45
46.95 94.46 5.4 -124.63 -0.49 -0.54 5.06 -3.74 -4.47 -0.0 21.93 -0.0 -3.65 -17.23 4.37 -0.37 -18.05 0.06 0.0 28.31 0.0 -5.42 -14.18 1.31 21.24 -0.16 -2.95 5.39 0.05 -0.71 8.58 0.27 -1.15 -1.64 0.18 0.35 -1.67 0.2 0.34 -30.92 9.51 4.18 0.72 -9.86 6.64 52.44 -48.05 35.44 -1.37 65.62 -40.14 -23.59 12.89 -57.1 -3.21 -3.6 -4.06 -26.86 1.74 -73.48 -9.66 32.15 -7.02 -6.42 -26.28 21.43
46.9 94.45 5.46 -124.84 -0.53 -0.54 5.08 -3.72 -4.54 0.0 21.92 0.0 -3.46 -17.22 4.39 -0.37 -18.0 0.02 -0.0 28.36 0.0 -5.38 -14.21 1.31 21.32 -0.14 -2.9 5.41 0.05 -0.7 8.61 0.28 -1.14 -1.64 0.18 0.35 -1.67 0.2 0.35 -30.85 9.52 4.21 -0.05 -9.28 7.22 50.22 -47.26 37.76 0.6 66.01 -39.11 -23.87 12.37 -57.26 -3.37 -3.61 -4.08 -26.95 1.75 -73.43 -9.62 32.16 -6.93 -6.43 -26.5 21.35
46.86 94.45 5.49 -125.0 -0.6 -0.56 5.07 -3.63 -4.58 0.0 21.88 0.0 -3.37 -17.21 4.42 -0.39 -17.91 0.02 -0.0 28.41 -0.0 -5.32 -14.25 1.29 21.24 0.01 -2.76 5.39 0.08 -0.68 8.58 0.3 -1.09 -1.63 0.18 0.34 -1.66 0.2 0.34 -30.62 9.3 4.17 -0.44 -8.7 7.36 49.3 -46.96 38.89 1.66 66.45 -38.99 -23.85 12.33 -55.92 -3.22 -3.71 -4.22 -27.1 1.73 -73.35 -9.69 32.1 -6.94 -6.45 -26.32 21.43
46.81 94.45 5.52 -125.15 -0.64 -0.59 5.07 -3.58 -4.6 -0.0 21.82 -0.0 -3.26 -17.18 4.43 -0.39 -17.86 0.02 -0.0 28.45 -0.0 -5.31 -14.29 1.28 21.29 0.03 -2.71 5.4 0.08 -0.66 8.6 0.3 -1.07 -1.63 0.18 0.34 -1.66 0.2 0.34 -30.6 9.21 4.18 -0.92 -8.02 7.74 48.66 -46.44 39.74 3.15 66.73 -35.68 -24.39 11.47 -57.0 -3.29 -3.64 -4.22 -27.03 1.65 -73.31 -9.86 32.07 -6.92 -6.46 -26.41 21.52
